<svg width="25" height="26" viewBox="0 0 25 26" fill="none" xmlns="http://www.w3.org/2000/svg">
<path d="M5.33333 5.70833H19.6562L18.6771 4.66667H6.17708L5.33333 5.70833ZM21.3958 5.94792C21.6979 6.30208 21.875 6.75 21.875 7.27083V20.2917C21.875 20.8442 21.6555 21.3741 21.2648 21.7648C20.8741 22.1555 20.3442 22.375 19.7917 22.375H5.20833C4.6558 22.375 4.12589 22.1555 3.73519 21.7648C3.34449 21.3741 3.125 20.8442 3.125 20.2917V7.27083C3.125 6.75 3.30208 6.30208 3.60417 5.94792L5.04167 4.19792C5.33333 3.84375 5.76042 3.625 6.25 3.625H18.75C19.2396 3.625 19.6667 3.84375 19.9479 4.19792L21.3958 5.94792ZM6.25 19.25H12.5V16.125H6.25V19.25Z" fill="#FF8F00"/>
</svg>
