<svg width="22" height="21" viewBox="0 0 22 21" fill="none" xmlns="http://www.w3.org/2000/svg">
<path d="M17.7204 1.42005C17.291 0.967189 16.7801 0.608438 16.2174 0.364662C15.6547 0.120885 15.0514 -0.00305174 14.4426 5.70675e-05H4.68551C3.45811 0.00269941 2.28171 0.515581 1.4138 1.42643C0.545902 2.33728 0.0572052 3.57191 0.0546875 4.86004V15.13C0.0571942 16.4191 0.545586 17.6547 1.41322 18.5672C2.28085 19.4796 3.45724 19.9947 4.68551 20H10.7361C11.0886 19.997 11.4383 19.922 11.7651 19.78L11.9176 19.7L11.9938 19.65C12.2314 19.5298 12.4474 19.3674 12.6322 19.17L18.3493 13.17C18.5427 12.97 18.7037 12.736 18.8257 12.48L18.9019 12.31C18.9058 12.27 18.962 12.19 18.9582 12.15C19.0601 11.854 19.0553 11.584 19.0534 11.27V4.93004C19.0678 4.28085 18.9571 3.63529 18.7279 3.03213C18.4986 2.42897 18.1566 1.88063 17.7204 1.42005ZM7.59168 14.86H4.6474C4.45786 14.86 4.27609 14.781 4.14207 14.6403C4.00805 14.4997 3.93276 14.3089 3.93276 14.11C3.93276 13.9111 4.00805 13.7203 4.14207 13.5797C4.27609 13.439 4.45786 13.36 4.6474 13.36H7.59168C7.78122 13.36 7.96299 13.439 8.09701 13.5797C8.23102 13.7203 8.30632 13.9111 8.30632 14.11C8.30632 14.3089 8.23102 14.4997 8.09701 14.6403C7.96299 14.781 7.78122 14.86 7.59168 14.86ZM8.54453 10.75H4.61881C4.42928 10.75 4.24751 10.671 4.11349 10.5304C3.97947 10.3897 3.90418 10.1989 3.90418 10C3.90418 9.80112 3.97947 9.61035 4.11349 9.4697C4.24751 9.32905 4.42928 9.25003 4.61881 9.25003H8.54453C8.73406 9.25003 8.91583 9.32905 9.04985 9.4697C9.18387 9.61035 9.25916 9.80112 9.25916 10C9.25916 10.1989 9.18387 10.3897 9.04985 10.5304C8.91583 10.671 8.73406 10.75 8.54453 10.75ZM4.61881 6.63004C4.42928 6.63004 4.24751 6.55102 4.11349 6.41037C3.97947 6.26972 3.90418 6.07895 3.90418 5.88004C3.90418 5.68113 3.97947 5.49036 4.11349 5.34971C4.24751 5.20906 4.42928 5.13004 4.61881 5.13004H13.4326C13.6221 5.13004 13.8039 5.20906 13.9379 5.34971C14.072 5.49036 14.1472 5.68113 14.1472 5.88004C14.1472 6.07895 14.072 6.26972 13.9379 6.41037C13.8039 6.55102 13.6221 6.63004 13.4326 6.63004H4.61881ZM12.0224 17.63L11.6984 14.88C11.6626 14.5426 11.6984 14.2011 11.8033 13.88C11.9072 13.5434 12.087 13.2381 12.3273 12.99C12.5677 12.7358 12.8614 12.5441 13.1849 12.43C13.5057 12.3124 13.8483 12.2748 14.1854 12.32L16.8057 12.66L12.0224 17.63Z" fill="#0C1F3D"/>
<circle cx="15.5547" cy="14.5" r="5.5" fill="#0C1F3D" stroke="white" stroke-width="1.5"/>
<path d="M15.0547 12.5V14.8C15.0547 14.9105 15.1442 15 15.2547 15H17.5547" stroke="white" stroke-linecap="round"/>
</svg>
