<svg width="36" height="20" viewBox="0 0 36 20" fill="none" xmlns="http://www.w3.org/2000/svg">
<path d="M10.8333 2.70833H25.1562L24.1771 1.66667H11.6771L10.8333 2.70833ZM26.8958 2.94792C27.1979 3.30208 27.375 3.75 27.375 4.27083V17.2917C27.375 17.8442 27.1555 18.3741 26.7648 18.7648C26.3741 19.1555 25.8442 19.375 25.2917 19.375H10.7083C10.1558 19.375 9.62589 19.1555 9.23519 18.7648C8.84449 18.3741 8.625 17.8442 8.625 17.2917V4.27083C8.625 3.75 8.80208 3.30208 9.10417 2.94792L10.5417 1.19792C10.8333 0.84375 11.2604 0.625 11.75 0.625H24.25C24.7396 0.625 25.1667 0.84375 25.4479 1.19792L26.8958 2.94792ZM11.75 16.25H18V13.125H11.75V16.25Z" fill="#FC2D2D"/>
<rect x="2.5" y="14.5" width="5" height="1" fill="#FC2D2D"/>
<rect x="0.5" y="17.5" width="7" height="1" fill="#FC2D2D"/>
<rect x="4.5" y="11.5" width="3" height="1" fill="#FC2D2D"/>
<rect width="5" height="1" transform="matrix(-1 0 0 1 33.5 6.625)" fill="#FC2D2D"/>
<rect width="7" height="1" transform="matrix(-1 0 0 1 35.5 9.625)" fill="#FC2D2D"/>
<rect width="3" height="1" transform="matrix(-1 0 0 1 31.5 3.625)" fill="#FC2D2D"/>
</svg>
