<svg width="14" height="17" viewBox="0 0 14 17" fill="none" xmlns="http://www.w3.org/2000/svg">
<path d="M0.333253 11.917V4.00033C0.333253 3.26422 0.524364 2.67728 0.906586 2.2395C1.28881 1.80172 1.79214 1.46839 2.41659 1.2395C3.04103 1.01061 3.75297 0.857832 4.55242 0.781165C5.35186 0.704498 6.1677 0.666443 6.99992 0.666998C7.91659 0.666998 8.78131 0.705332 9.59409 0.781998C10.4069 0.858665 11.1152 1.01144 11.7191 1.24033C12.323 1.46922 12.7985 1.80255 13.1458 2.24033C13.493 2.67811 13.6666 3.26478 13.6666 4.00033V11.917C13.6666 12.7364 13.3855 13.4276 12.8233 13.9903C12.261 14.5531 11.5699 14.8342 10.7499 14.8337L11.9999 16.0837V16.5003H10.3333L8.66659 14.8337H5.33325L3.66659 16.5003H1.99992V16.0837L3.24992 14.8337C2.43047 14.8337 1.73936 14.5526 1.17659 13.9903C0.613808 13.4281 0.332697 12.737 0.333253 11.917ZM1.99992 7.33366H6.16659V4.83366H1.99992V7.33366ZM7.83325 7.33366H11.9999V4.83366H7.83325V7.33366ZM4.08325 12.3337C4.44436 12.3337 4.74297 12.2156 4.97909 11.9795C5.2152 11.7434 5.33325 11.4448 5.33325 11.0837C5.33325 10.7226 5.2152 10.4239 4.97909 10.1878C4.74297 9.95172 4.44436 9.83366 4.08325 9.83366C3.72214 9.83366 3.42353 9.95172 3.18742 10.1878C2.95131 10.4239 2.83325 10.7226 2.83325 11.0837C2.83325 11.4448 2.95131 11.7434 3.18742 11.9795C3.42353 12.2156 3.72214 12.3337 4.08325 12.3337ZM9.91659 12.3337C10.2777 12.3337 10.5763 12.2156 10.8124 11.9795C11.0485 11.7434 11.1666 11.4448 11.1666 11.0837C11.1666 10.7226 11.0485 10.4239 10.8124 10.1878C10.5763 9.95172 10.2777 9.83366 9.91659 9.83366C9.55547 9.83366 9.25686 9.95172 9.02075 10.1878C8.78464 10.4239 8.66659 10.7226 8.66659 11.0837C8.66659 11.4448 8.78464 11.7434 9.02075 11.9795C9.25686 12.2156 9.55547 12.3337 9.91659 12.3337Z" fill="#0162E4"/>
</svg>
