<svg width="26" height="26" viewBox="0 0 26 26" fill="none" xmlns="http://www.w3.org/2000/svg">
<path d="M4.86657 8.82136L4.59914 9.85857C4.07447 10.0175 3.61485 10.341 3.28826 10.7813C2.96166 11.2216 2.78544 11.7553 2.78564 12.3035V20.6606C2.78564 21.3379 3.05468 21.9874 3.53357 22.4663C4.01246 22.9452 4.66197 23.2142 5.33922 23.2142H6.26779C6.94504 23.2142 7.59455 22.9452 8.07343 22.4663C8.55232 21.9874 8.82136 21.3379 8.82136 20.6606V19.7321H17.1785V20.6606C17.1785 21.3379 17.4475 21.9874 17.9264 22.4663C18.4053 22.9452 19.0548 23.2142 19.7321 23.2142H20.6606C21.3379 23.2142 21.9874 22.9452 22.4663 22.4663C22.9452 21.9874 23.2142 21.3379 23.2142 20.6606V12.3035C23.2144 11.7553 23.0382 11.2216 22.7116 10.7813C22.385 10.341 21.9254 10.0175 21.4007 9.85857L21.1324 8.82136H22.0535C22.2382 8.82136 22.4153 8.74798 22.5459 8.61738C22.6766 8.48677 22.7499 8.30963 22.7499 8.12493C22.7499 7.94023 22.6766 7.76309 22.5459 7.63248C22.4153 7.50187 22.2382 7.4285 22.0535 7.4285H20.773L20.2493 5.39772C20.0564 4.65015 19.6205 3.9879 19.0102 3.51507C18.3998 3.04224 17.6497 2.78566 16.8776 2.78564H9.12222C8.35017 2.78566 7.60001 3.04224 6.98969 3.51507C6.37936 3.9879 5.94348 4.65015 5.75057 5.39772L5.22686 7.4285H3.94636C3.76165 7.4285 3.58452 7.50187 3.45391 7.63248C3.3233 7.76309 3.24993 7.94023 3.24993 8.12493C3.24993 8.30963 3.3233 8.48677 3.45391 8.61738C3.58452 8.74798 3.76165 8.82136 3.94636 8.82136H4.86657ZM9.12222 4.1785H16.8776C17.3408 4.17864 17.7908 4.33268 18.1569 4.6164C18.523 4.90013 18.7844 5.29745 18.9001 5.74593L19.9336 9.74993H6.06629L7.09886 5.74593C7.21458 5.2973 7.47615 4.89986 7.84243 4.61612C8.2087 4.33238 8.6589 4.17844 9.12222 4.1785ZM18.5714 20.6606V19.7321H21.8214V20.6606C21.8214 21.3014 21.3014 21.8214 20.6606 21.8214H19.7321C19.0914 21.8214 18.5714 21.3014 18.5714 20.6606ZM7.4285 19.7321V20.6606C7.4285 21.3014 6.9085 21.8214 6.26779 21.8214H5.33922C4.6985 21.8214 4.1785 21.3014 4.1785 20.6606V19.7321H7.4285ZM7.66064 15.3214C7.3528 15.3214 7.05757 15.1991 6.8399 14.9814C6.62222 14.7637 6.49993 14.4685 6.49993 14.1606C6.49993 13.8528 6.62222 13.5576 6.8399 13.3399C7.05757 13.1222 7.3528 12.9999 7.66064 12.9999C7.96848 12.9999 8.26372 13.1222 8.48139 13.3399C8.69907 13.5576 8.82136 13.8528 8.82136 14.1606C8.82136 14.4685 8.69907 14.7637 8.48139 14.9814C8.26372 15.1991 7.96848 15.3214 7.66064 15.3214ZM19.4999 14.1606C19.4999 14.4685 19.3776 14.7637 19.16 14.9814C18.9423 15.1991 18.6471 15.3214 18.3392 15.3214C18.0314 15.3214 17.7361 15.1991 17.5185 14.9814C17.3008 14.7637 17.1785 14.4685 17.1785 14.1606C17.1785 13.8528 17.3008 13.5576 17.5185 13.3399C17.7361 13.1222 18.0314 12.9999 18.3392 12.9999C18.6471 12.9999 18.9423 13.1222 19.16 13.3399C19.3776 13.5576 19.4999 13.8528 19.4999 14.1606ZM10.9106 15.3214H15.0892C15.2739 15.3214 15.4511 15.3947 15.5817 15.5253C15.7123 15.6559 15.7856 15.8331 15.7856 16.0178C15.7856 16.2025 15.7123 16.3796 15.5817 16.5102C15.4511 16.6408 15.2739 16.7142 15.0892 16.7142H10.9106C10.7259 16.7142 10.5488 16.6408 10.4182 16.5102C10.2876 16.3796 10.2142 16.2025 10.2142 16.0178C10.2142 15.8331 10.2876 15.6559 10.4182 15.5253C10.5488 15.3947 10.7259 15.3214 10.9106 15.3214Z" fill="#0162E4"/>
</svg>
