<svg width="20" height="20" viewBox="0 0 20 20" fill="none" xmlns="http://www.w3.org/2000/svg">
<path d="M3.74354 6.78544L3.53782 7.58329C3.13422 7.70551 2.78067 7.95436 2.52945 8.29306C2.27822 8.63176 2.14267 9.04231 2.14282 9.46401V15.8926C2.14282 16.4135 2.34977 16.9132 2.71815 17.2815C3.08652 17.6499 3.58615 17.8569 4.10711 17.8569H4.82139C5.34235 17.8569 5.84198 17.6499 6.21035 17.2815C6.57873 16.9132 6.78568 16.4135 6.78568 15.8926V15.1783H13.2143V15.8926C13.2143 16.4135 13.4212 16.9132 13.7896 17.2815C14.158 17.6499 14.6576 17.8569 15.1785 17.8569H15.8928C16.4138 17.8569 16.9134 17.6499 17.2818 17.2815C17.6502 16.9132 17.8571 16.4135 17.8571 15.8926V9.46401C17.8573 9.04231 17.7217 8.63176 17.4705 8.29306C17.2193 7.95436 16.8657 7.70551 16.4621 7.58329L16.2557 6.78544H16.9642C17.1063 6.78544 17.2426 6.72899 17.3431 6.62853C17.4435 6.52806 17.5 6.3918 17.5 6.24972C17.5 6.10764 17.4435 5.97138 17.3431 5.87091C17.2426 5.77045 17.1063 5.71401 16.9642 5.71401H15.9792L15.5764 4.15186C15.428 3.57682 15.0927 3.06739 14.6232 2.70368C14.1537 2.33996 13.5767 2.14259 12.9828 2.14258H7.01711C6.42322 2.14259 5.84618 2.33996 5.3767 2.70368C4.90722 3.06739 4.57193 3.57682 4.42354 4.15186L4.02068 5.71401H3.03568C2.8936 5.71401 2.75734 5.77045 2.65687 5.87091C2.55641 5.97138 2.49997 6.10764 2.49997 6.24972C2.49997 6.3918 2.55641 6.52806 2.65687 6.62853C2.75734 6.72899 2.8936 6.78544 3.03568 6.78544H3.74354ZM7.01711 3.21401H12.9828C13.3391 3.21411 13.6852 3.3326 13.9668 3.55085C14.2484 3.7691 14.4495 4.07474 14.5385 4.41972L15.3335 7.49972H4.66639L5.46068 4.41972C5.5497 4.07462 5.75091 3.7689 6.03265 3.55063C6.3144 3.33237 6.66071 3.21396 7.01711 3.21401ZM14.2857 15.8926V15.1783H16.7857V15.8926C16.7857 16.3854 16.3857 16.7854 15.8928 16.7854H15.1785C14.6857 16.7854 14.2857 16.3854 14.2857 15.8926ZM5.71425 15.1783V15.8926C5.71425 16.3854 5.31425 16.7854 4.82139 16.7854H4.10711C3.61425 16.7854 3.21425 16.3854 3.21425 15.8926V15.1783H5.71425ZM5.89282 11.7854C5.65602 11.7854 5.42892 11.6914 5.26148 11.5239C5.09403 11.3565 4.99996 11.1294 4.99996 10.8926C4.99996 10.6558 5.09403 10.4287 5.26148 10.2612C5.42892 10.0938 5.65602 9.99972 5.89282 9.99972C6.12962 9.99972 6.35672 10.0938 6.52417 10.2612C6.69161 10.4287 6.78568 10.6558 6.78568 10.8926C6.78568 11.1294 6.69161 11.3565 6.52417 11.5239C6.35672 11.6914 6.12962 11.7854 5.89282 11.7854ZM15 10.8926C15 11.1294 14.9059 11.3565 14.7385 11.5239C14.571 11.6914 14.3439 11.7854 14.1071 11.7854C13.8703 11.7854 13.6432 11.6914 13.4758 11.5239C13.3083 11.3565 13.2143 11.1294 13.2143 10.8926C13.2143 10.6558 13.3083 10.4287 13.4758 10.2612C13.6432 10.0938 13.8703 9.99972 14.1071 9.99972C14.3439 9.99972 14.571 10.0938 14.7385 10.2612C14.9059 10.4287 15 10.6558 15 10.8926ZM8.39282 11.7854H11.6071C11.7492 11.7854 11.8854 11.8419 11.9859 11.9423C12.0864 12.0428 12.1428 12.1791 12.1428 12.3211C12.1428 12.4632 12.0864 12.5995 11.9859 12.7C11.8854 12.8004 11.7492 12.8569 11.6071 12.8569H8.39282C8.25074 12.8569 8.11448 12.8004 8.01402 12.7C7.91355 12.5995 7.85711 12.4632 7.85711 12.3211C7.85711 12.1791 7.91355 12.0428 8.01402 11.9423C8.11448 11.8419 8.25074 11.7854 8.39282 11.7854Z" fill="#0162E4"/>
</svg>
