<svg width="11" height="17" viewBox="0 0 11 17" fill="none" xmlns="http://www.w3.org/2000/svg">
<g clip-path="url(#clip0_38_3450)">
<path d="M5.58541 10.9976C5.22432 10.9983 4.8782 11.1556 4.62281 11.4351C4.36742 11.7145 4.22356 12.0933 4.2227 12.4886V15.538C4.2227 15.9336 4.36627 16.313 4.62183 16.5928C4.87739 16.8726 5.224 17.0297 5.58541 17.0297C5.94682 17.0297 6.29343 16.8726 6.54899 16.5928C6.80454 16.313 6.94811 15.9336 6.94811 15.538V15.5075V15.5089V12.4893C6.94743 12.0941 6.80382 11.7154 6.54869 11.4358C6.29356 11.1563 5.94768 10.9987 5.5867 10.9976H5.58541Z" fill="#0162E4"/>
<path d="M10.5231 1.86362H7.90059C7.58288 0.774917 6.66665 0 5.58476 0C4.50288 0 3.58729 0.774917 3.27412 1.8445L3.26959 1.86362H0.681353C0.500647 1.86362 0.327342 1.94221 0.199564 2.08209C0.0717852 2.22197 0 2.41168 0 2.6095C0 2.80732 0.0717852 2.99703 0.199564 3.13691C0.327342 3.27679 0.500647 3.35537 0.681353 3.35537H3.30388C3.47729 3.99217 3.85388 4.5135 4.34888 4.84004L4.35923 4.84642C2.50153 5.46054 1.16988 7.31142 1.15824 9.50512V13.4208C1.16093 13.7461 1.28013 14.0572 1.49018 14.2873C1.70024 14.5174 1.98439 14.648 2.28153 14.6512H3.20165V12.5262C3.20165 11.8241 3.45641 11.1508 3.90988 10.6544C4.36335 10.158 4.9784 9.87912 5.61971 9.87912C6.26101 9.87912 6.87606 10.158 7.32953 10.6544C7.78301 11.1508 8.03776 11.8241 8.03776 12.5262V14.6512H8.95724C9.25476 14.6489 9.53952 14.5186 9.74996 14.2884C9.96041 14.0581 10.0796 13.7465 10.0818 13.4208V9.54337C10.0814 8.49775 9.77266 7.48021 9.20152 6.6421C8.63037 5.804 7.82735 5.19011 6.91188 4.89175L6.88082 4.88325C7.38693 4.55292 7.76197 4.02742 7.93229 3.40992L7.93682 3.3915H10.5594C10.7399 3.39094 10.9129 3.31218 11.0406 3.17242C11.1682 3.03266 11.2402 2.84327 11.2407 2.64562C11.2335 2.44067 11.156 2.24623 11.0235 2.10114C10.8911 1.95604 10.7136 1.87097 10.5264 1.86292H10.5251L10.5231 1.86362ZM5.58476 4.13667C5.31525 4.13667 5.05178 4.04918 4.82769 3.88526C4.60359 3.72135 4.42893 3.48837 4.32579 3.21578C4.22265 2.9432 4.19566 2.64326 4.24824 2.35389C4.30082 2.06452 4.43061 1.79871 4.62119 1.59009C4.81176 1.38147 5.05457 1.23939 5.31891 1.18183C5.58325 1.12427 5.85725 1.15381 6.10625 1.26672C6.35525 1.37963 6.56808 1.57083 6.71781 1.81614C6.86755 2.06146 6.94747 2.34988 6.94747 2.64492L6.94812 2.68742C6.94812 3.48783 6.35541 4.13667 5.62424 4.13667L5.58347 4.13596H5.58541L5.58476 4.13667Z" fill="#0162E4"/>
</g>
<defs>
<clipPath id="clip0_38_3450">
<rect width="11" height="17" fill="white"/>
</clipPath>
</defs>
</svg>
