<svg width="15" height="22" viewBox="0 0 15 22" fill="none" xmlns="http://www.w3.org/2000/svg">
<g clip-path="url(#clip0_639_8516)">
<path d="M7.61654 14.2319C7.12414 14.2329 6.65217 14.4365 6.30391 14.7981C5.95565 15.1597 5.75947 15.65 5.7583 16.1615V20.1078C5.7583 20.6198 5.95408 21.1108 6.30257 21.4728C6.65105 21.8349 7.1237 22.0383 7.61654 22.0383C8.10937 22.0383 8.58202 21.8349 8.93051 21.4728C9.27899 21.1108 9.47477 20.6198 9.47477 20.1078V20.0683V20.0702V16.1624C9.47384 15.651 9.27801 15.1609 8.9301 14.7991C8.5822 14.4373 8.11054 14.2334 7.6183 14.2319H7.61654Z" fill="#0AB75B"/>
<path d="M14.3497 2.41175H10.7735C10.3403 1.00283 9.09088 0 7.61559 0C6.14029 0 4.89176 1.00283 4.46471 2.387L4.45853 2.41175H0.929118C0.6827 2.41175 0.446376 2.51345 0.272132 2.69447C0.0978889 2.87548 0 3.121 0 3.377C0 3.633 0.0978889 3.87852 0.272132 4.05954C0.446376 4.24055 0.6827 4.34225 0.929118 4.34225H4.50529C4.74176 5.16633 5.25529 5.841 5.93029 6.26358L5.94441 6.27183C3.41118 7.06658 1.59529 9.46183 1.57941 12.3007V17.3681C1.58309 17.789 1.74563 18.1917 2.03207 18.4894C2.31851 18.7872 2.70599 18.9563 3.11118 18.9603H4.36588V16.2103C4.36588 15.3018 4.71328 14.4305 5.33165 13.7881C5.95003 13.1457 6.78872 12.7847 7.66324 12.7847C8.53775 12.7847 9.37644 13.1457 9.99482 13.7881C10.6132 14.4305 10.9606 15.3018 10.9606 16.2103V18.9603H12.2144C12.6201 18.9575 13.0084 18.7888 13.2954 18.4908C13.5824 18.1929 13.7449 17.7896 13.7479 17.3681V12.3502C13.7474 10.9971 13.3264 9.68027 12.5475 8.59566C11.7687 7.51105 10.6737 6.71661 9.42529 6.3305L9.38294 6.3195C10.0731 5.89202 10.5845 5.21196 10.8168 4.41283L10.8229 4.389H14.3991C14.6453 4.38827 14.8812 4.28635 15.0553 4.10548C15.2294 3.92462 15.3275 3.67953 15.3282 3.42375C15.3184 3.15852 15.2127 2.90689 15.0321 2.71912C14.8515 2.53135 14.6094 2.42126 14.3541 2.41083H14.3524L14.3497 2.41175ZM7.61559 5.35333C7.24806 5.35333 6.88879 5.24011 6.58321 5.02799C6.27762 4.81586 6.03945 4.51436 5.8988 4.1616C5.75816 3.80885 5.72136 3.42069 5.79306 3.04621C5.86476 2.67173 6.04174 2.32775 6.30162 2.05776C6.5615 1.78778 6.8926 1.60392 7.25306 1.52943C7.61353 1.45494 7.98716 1.49317 8.3267 1.63928C8.66625 1.7854 8.95647 2.03284 9.16066 2.3503C9.36484 2.66777 9.47382 3.04102 9.47382 3.42283L9.47471 3.47783C9.47471 4.51367 8.66647 5.35333 7.66941 5.35333L7.61382 5.35242H7.61647L7.61559 5.35333Z" fill="#0AB75B"/>
</g>
<defs>
<clipPath id="clip0_639_8516">
<rect width="15" height="22" fill="white"/>
</clipPath>
</defs>
</svg>
