<svg width="20" height="14" viewBox="0 0 20 14" fill="none" xmlns="http://www.w3.org/2000/svg">
<path d="M3.69796 0.125C2.93822 0.125 2.2096 0.426803 1.67239 0.964017C1.13518 1.50123 0.833374 2.22985 0.833374 2.98958V4.47917H19.1667V2.98958C19.1667 2.22985 18.8649 1.50123 18.3277 0.964017C17.7905 0.426803 17.0619 0.125 16.3021 0.125H3.69796ZM0.833374 11.0104V5.625H19.1667V11.0104C19.1667 11.7702 18.8649 12.4988 18.3277 13.036C17.7905 13.5732 17.0619 13.875 16.3021 13.875H3.69796C2.93822 13.875 2.2096 13.5732 1.67239 13.036C1.13518 12.4988 0.833374 11.7702 0.833374 11.0104ZM13.323 9.52083C13.171 9.52083 13.0253 9.58119 12.9178 9.68864C12.8104 9.79608 12.75 9.9418 12.75 10.0938C12.75 10.2457 12.8104 10.3914 12.9178 10.4989C13.0253 10.6063 13.171 10.6667 13.323 10.6667H15.8438C15.9957 10.6667 16.1415 10.6063 16.2489 10.4989C16.3563 10.3914 16.4167 10.2457 16.4167 10.0938C16.4167 9.9418 16.3563 9.79608 16.2489 9.68864C16.1415 9.58119 15.9957 9.52083 15.8438 9.52083H13.323Z" fill="#0162E4"/>
</svg>
