<svg width="22" height="22" viewBox="0 0 22 22" fill="none" xmlns="http://www.w3.org/2000/svg">
<path fill-rule="evenodd" clip-rule="evenodd" d="M21.0546 9.18745C21.0546 5.50066 21.0546 3.65792 20.17 2.33361C19.7868 1.76013 19.2945 1.26775 18.721 0.88462C17.3967 -3.12923e-07 15.5552 0 11.8671 0H9.24214C5.55535 0 3.71261 -3.12923e-07 2.3883 0.88462C1.81481 1.26775 1.32244 1.76013 0.939308 2.33361C0.0546872 3.65792 0.0546875 5.49935 0.0546875 9.18745C0.0546875 12.8756 0.0546872 14.717 0.939308 16.0413C1.32244 16.6148 1.81481 17.1072 2.3883 17.4903C3.54461 18.2633 5.09729 18.3605 7.92965 18.3736L9.38126 21.2768C9.49038 21.4946 9.65793 21.6776 9.86515 21.8055C10.0724 21.9335 10.3111 22.0012 10.5546 22.0012C10.7982 22.0012 11.0369 21.9335 11.2441 21.8055C11.4513 21.6776 11.6189 21.4946 11.728 21.2768L13.1796 18.3749C16.012 18.3618 17.5633 18.2633 18.721 17.4903C19.2945 17.1072 19.7868 16.6148 20.17 16.0413C21.0546 14.717 21.0546 12.8756 21.0546 9.18745ZM6.61715 5.24997C6.26906 5.24997 5.93522 5.38825 5.68908 5.63439C5.44294 5.88053 5.30466 6.21437 5.30466 6.56247C5.30466 6.91056 5.44294 7.2444 5.68908 7.49054C5.93522 7.73668 6.26906 7.49054 6.61715 7.49054H14.4921C14.8402 7.49054 15.174 7.54418 15.4202 7.29804C15.6663 7.0519 15.8046 6.91056 15.8046 6.56247C15.8046 6.21437 15.6663 5.88053 15.4202 5.63439C15.174 5.38825 14.8402 5.24997 14.4921 5.24997H6.61715ZM6.61715 10.4999C6.26906 10.4999 5.93522 10.6382 5.68908 10.8844C5.44294 11.1305 5.30466 11.4643 5.30466 11.8124C5.30466 12.1605 5.44294 12.4944 5.68908 12.7405C5.93522 12.9867 6.26906 13.1249 6.61715 13.1249H10.5546C10.9027 13.1249 11.2366 12.9867 11.4827 12.7405C11.7288 12.4944 11.8671 12.1605 11.8671 11.8124C11.8671 11.4643 11.7288 11.1305 11.4827 10.8844C11.2366 10.6382 10.9027 10.4999 10.5546 10.4999H6.61715Z" fill="#868F9E"/>
<rect x="3.99219" y="3.93726" width="13.1249" height="10.4999" fill="#868F9E"/>
<path d="M3.99219 6.56274H17.1171" stroke="white" stroke-width="1.5" stroke-linecap="round"/>
<path d="M3.99219 11.8127H10.5547" stroke="white" stroke-width="1.5" stroke-linecap="round"/>
</svg>
